<mxfile host="app.diagrams.net" modified="2023-04-26T01:35:08.426Z" agent="Mozilla/5.0 (Macintosh; Intel Mac OS X 10_15_7) AppleWebKit/605.1.15 (KHTML, like Gecko) Version/16.4 Safari/605.1.15" etag="igqDoe0Km9wt48SF0LO7" version="21.2.1" type="github">
  <diagram name="Page-1" id="aV0WPRQrswohzX3vBwG8">
    <mxGraphModel dx="795" dy="606" grid="1" gridSize="10" guides="1" tooltips="1" connect="1" arrows="1" fold="1" page="1" pageScale="1" pageWidth="850" pageHeight="1100" math="0" shadow="0">
      <root>
        <mxCell id="0" />
        <mxCell id="1" parent="0" />
        <mxCell id="dLqF3FQXPnjR-cwJn4vv-4" value="" style="rounded=0;whiteSpace=wrap;html=1;direction=south;" vertex="1" parent="1">
          <mxGeometry x="290" y="40" width="80" height="120" as="geometry" />
        </mxCell>
        <mxCell id="dLqF3FQXPnjR-cwJn4vv-6" style="edgeStyle=orthogonalEdgeStyle;rounded=0;orthogonalLoop=1;jettySize=auto;html=1;entryX=0.5;entryY=1;entryDx=0;entryDy=0;" edge="1" parent="1" source="dLqF3FQXPnjR-cwJn4vv-8" target="dLqF3FQXPnjR-cwJn4vv-7">
          <mxGeometry relative="1" as="geometry">
            <mxPoint x="260" y="100" as="targetPoint" />
          </mxGeometry>
        </mxCell>
        <mxCell id="dLqF3FQXPnjR-cwJn4vv-5" value="" style="rounded=0;whiteSpace=wrap;html=1;direction=south;align=left;" vertex="1" parent="1">
          <mxGeometry x="80" y="40" width="80" height="120" as="geometry" />
        </mxCell>
        <mxCell id="dLqF3FQXPnjR-cwJn4vv-7" value="" style="ellipse;whiteSpace=wrap;html=1;direction=south;" vertex="1" parent="1">
          <mxGeometry x="250" y="75" width="50" height="50" as="geometry" />
        </mxCell>
        <mxCell id="dLqF3FQXPnjR-cwJn4vv-8" value="" style="ellipse;whiteSpace=wrap;html=1;direction=south;" vertex="1" parent="1">
          <mxGeometry x="140" y="75" width="50" height="50" as="geometry" />
        </mxCell>
        <mxCell id="dLqF3FQXPnjR-cwJn4vv-10" value="DC&lt;br style=&quot;border-color: var(--border-color); text-align: left; font-size: 10px;&quot;&gt;&lt;span style=&quot;text-align: left; font-size: 10px;&quot;&gt;10.0.0.0/16&lt;/span&gt;" style="text;strokeColor=none;align=center;fillColor=none;html=1;verticalAlign=middle;whiteSpace=wrap;rounded=0;fontSize=10;" vertex="1" parent="1">
          <mxGeometry x="90" y="45" width="60" height="30" as="geometry" />
        </mxCell>
        <mxCell id="dLqF3FQXPnjR-cwJn4vv-11" value="AWS&lt;br style=&quot;font-size: 10px;&quot;&gt;172.31.0.0/16" style="text;strokeColor=none;align=center;fillColor=none;html=1;verticalAlign=middle;whiteSpace=wrap;rounded=0;fontSize=10;" vertex="1" parent="1">
          <mxGeometry x="300" y="45" width="60" height="30" as="geometry" />
        </mxCell>
        <mxCell id="dLqF3FQXPnjR-cwJn4vv-20" style="rounded=0;orthogonalLoop=1;jettySize=auto;html=1;entryX=0.357;entryY=-0.005;entryDx=0;entryDy=0;entryPerimeter=0;" edge="1" parent="1" source="dLqF3FQXPnjR-cwJn4vv-12" target="dLqF3FQXPnjR-cwJn4vv-14">
          <mxGeometry relative="1" as="geometry" />
        </mxCell>
        <mxCell id="dLqF3FQXPnjR-cwJn4vv-12" value="" style="rounded=0;whiteSpace=wrap;html=1;" vertex="1" parent="1">
          <mxGeometry x="380" y="260" width="60" height="60" as="geometry" />
        </mxCell>
        <mxCell id="dLqF3FQXPnjR-cwJn4vv-19" style="rounded=0;orthogonalLoop=1;jettySize=auto;html=1;exitX=0.25;exitY=1;exitDx=0;exitDy=0;entryX=0.633;entryY=0;entryDx=0;entryDy=0;entryPerimeter=0;" edge="1" parent="1" source="dLqF3FQXPnjR-cwJn4vv-13" target="dLqF3FQXPnjR-cwJn4vv-14">
          <mxGeometry relative="1" as="geometry" />
        </mxCell>
        <mxCell id="dLqF3FQXPnjR-cwJn4vv-13" value="" style="rounded=0;whiteSpace=wrap;html=1;" vertex="1" parent="1">
          <mxGeometry x="520" y="260" width="60" height="60" as="geometry" />
        </mxCell>
        <mxCell id="dLqF3FQXPnjR-cwJn4vv-14" value="" style="rounded=1;whiteSpace=wrap;html=1;" vertex="1" parent="1">
          <mxGeometry x="405" y="360" width="150" height="60" as="geometry" />
        </mxCell>
        <mxCell id="dLqF3FQXPnjR-cwJn4vv-18" style="edgeStyle=orthogonalEdgeStyle;rounded=0;orthogonalLoop=1;jettySize=auto;html=1;exitX=1;exitY=0.5;exitDx=0;exitDy=0;entryX=0;entryY=0.5;entryDx=0;entryDy=0;endArrow=none;endFill=0;" edge="1" parent="1" source="dLqF3FQXPnjR-cwJn4vv-16" target="dLqF3FQXPnjR-cwJn4vv-17">
          <mxGeometry relative="1" as="geometry" />
        </mxCell>
        <mxCell id="dLqF3FQXPnjR-cwJn4vv-16" value="" style="ellipse;whiteSpace=wrap;html=1;aspect=fixed;" vertex="1" parent="1">
          <mxGeometry x="425" y="370" width="40" height="40" as="geometry" />
        </mxCell>
        <mxCell id="dLqF3FQXPnjR-cwJn4vv-17" value="" style="ellipse;whiteSpace=wrap;html=1;aspect=fixed;" vertex="1" parent="1">
          <mxGeometry x="495" y="370" width="40" height="40" as="geometry" />
        </mxCell>
        <mxCell id="dLqF3FQXPnjR-cwJn4vv-21" value="Central&lt;br style=&quot;font-size: 11px;&quot;&gt;Cloud Hub&lt;br style=&quot;font-size: 11px;&quot;&gt;Transit Gateway" style="rounded=0;whiteSpace=wrap;html=1;perimeterSpacing=0;strokeWidth=1;glass=0;shadow=0;fontSize=11;" vertex="1" parent="1">
          <mxGeometry x="105" y="360" width="120" height="60" as="geometry" />
        </mxCell>
        <mxCell id="dLqF3FQXPnjR-cwJn4vv-27" style="edgeStyle=orthogonalEdgeStyle;rounded=0;orthogonalLoop=1;jettySize=auto;html=1;exitX=1;exitY=0.5;exitDx=0;exitDy=0;entryX=0.5;entryY=0;entryDx=0;entryDy=0;fontSize=10;" edge="1" parent="1" source="dLqF3FQXPnjR-cwJn4vv-23" target="dLqF3FQXPnjR-cwJn4vv-21">
          <mxGeometry relative="1" as="geometry" />
        </mxCell>
        <mxCell id="dLqF3FQXPnjR-cwJn4vv-23" value="VPC A" style="rounded=1;whiteSpace=wrap;html=1;direction=south;fontSize=9;" vertex="1" parent="1">
          <mxGeometry x="145" y="260" width="40" height="60" as="geometry" />
        </mxCell>
        <mxCell id="dLqF3FQXPnjR-cwJn4vv-28" style="edgeStyle=orthogonalEdgeStyle;rounded=0;orthogonalLoop=1;jettySize=auto;html=1;entryX=0.5;entryY=1;entryDx=0;entryDy=0;fontSize=10;" edge="1" parent="1" source="dLqF3FQXPnjR-cwJn4vv-24" target="dLqF3FQXPnjR-cwJn4vv-21">
          <mxGeometry relative="1" as="geometry" />
        </mxCell>
        <mxCell id="dLqF3FQXPnjR-cwJn4vv-24" value="VPC C" style="rounded=1;whiteSpace=wrap;html=1;direction=south;fontSize=9;" vertex="1" parent="1">
          <mxGeometry x="145" y="460" width="40" height="60" as="geometry" />
        </mxCell>
        <mxCell id="dLqF3FQXPnjR-cwJn4vv-29" style="edgeStyle=orthogonalEdgeStyle;rounded=0;orthogonalLoop=1;jettySize=auto;html=1;entryX=1;entryY=0.5;entryDx=0;entryDy=0;fontSize=10;" edge="1" parent="1" source="dLqF3FQXPnjR-cwJn4vv-25" target="dLqF3FQXPnjR-cwJn4vv-21">
          <mxGeometry relative="1" as="geometry" />
        </mxCell>
        <mxCell id="dLqF3FQXPnjR-cwJn4vv-25" value="VPC B" style="rounded=1;whiteSpace=wrap;html=1;direction=south;fontSize=9;" vertex="1" parent="1">
          <mxGeometry x="250" y="360" width="40" height="60" as="geometry" />
        </mxCell>
        <mxCell id="dLqF3FQXPnjR-cwJn4vv-32" style="edgeStyle=orthogonalEdgeStyle;rounded=0;orthogonalLoop=1;jettySize=auto;html=1;entryX=0;entryY=0.5;entryDx=0;entryDy=0;fontSize=10;" edge="1" parent="1" source="dLqF3FQXPnjR-cwJn4vv-26" target="dLqF3FQXPnjR-cwJn4vv-21">
          <mxGeometry relative="1" as="geometry" />
        </mxCell>
        <mxCell id="dLqF3FQXPnjR-cwJn4vv-26" value="VPC D" style="rounded=1;whiteSpace=wrap;html=1;direction=south;fontSize=9;" vertex="1" parent="1">
          <mxGeometry x="30" y="360" width="40" height="60" as="geometry" />
        </mxCell>
      </root>
    </mxGraphModel>
  </diagram>
</mxfile>
